<svg version="1.1" viewBox="0.0 0.0 800.0 636.0" fill="none" stroke="none" stroke-linecap="square" stroke-miterlimit="10" width="800" height="636" xmlns:xlink="http://www.w3.org/1999/xlink" xmlns="http://www.w3.org/2000/svg"><path fill="#ffffff" d="M0 0L800.0 0L800.0 636.0L0 636.0L0 0Z" fill-rule="nonzero"/><path fill="#4285f4" d="M400.0 31.8C532.25385 31.8 647.28375 122.41812 678.2462 250.99649L539.1231 284.49823C523.64185 220.20906 466.12692 174.9 400.0 174.9Z" fill-rule="nonzero"/><path fill="#ea4335" d="M678.2462 250.99649C679.2666 255.23364 680.19 259.49356 681.01575 263.7729L540.5079 290.88644C540.095 288.7468 539.6333 286.61682 539.1231 284.49823Z" fill-rule="nonzero"/><path fill="#fbbc04" d="M681.01575 263.7729C685.78656 288.49615 687.2739 313.74088 685.4393 338.85327L542.71967 328.42664C543.63696 315.87042 542.8933 303.24808 540.5079 290.88644Z" fill-rule="nonzero"/><path fill="#34a853" d="M685.4393 338.85327C682.6483 377.05563 672.2172 414.30908 654.76404 448.40598L527.382 383.20297C536.1086 366.15454 541.32416 347.52783 542.71967 328.42664Z" fill-rule="nonzero"/><path fill="#ff994d" d="M162.13281 477.1529C103.39025 389.35727 97.78509 276.34247 147.55199 183.16513C197.31888 89.98779 294.36496 31.8 400.0 31.8L400.0 174.9C347.1825 174.9 298.65945 203.9939 273.776 250.58257C248.89255 297.17123 251.69513 353.67862 281.0664 397.57645Z" fill-rule="nonzero"/><path fill="#71c287" d="M233.87703 551.0528C205.69011 530.96075 181.3818 505.92212 162.13281 477.1529L281.0664 397.57645C290.69092 411.96106 302.84506 424.48038 316.9385 434.5264Z" fill-rule="nonzero"/><path fill="#fcd04f" d="M251.73714 562.8031C245.63951 559.1101 239.68198 555.1906 233.87703 551.0528L316.9385 434.5264C319.841 436.5953 322.81976 438.55505 325.86856 440.40155Z" fill-rule="nonzero"/><path fill="#f07b72" d="M281.40164 578.47046C271.21564 573.8325 261.31046 568.60114 251.73714 562.8031L325.86856 440.40155C330.65524 443.30057 335.60782 445.91626 340.70084 448.23523Z" fill-rule="nonzero"/><path fill="#7baaf7" d="M309.47223 589.5054C299.92792 586.323 290.55804 582.6396 281.40164 578.47046L340.70084 448.23523C345.27902 450.3198 349.96396 452.1615 354.7361 453.7527Z" fill-rule="nonzero"/><path fill="#46bdc6" d="M343.9102 598.6499C332.25208 596.31995 320.7505 593.26587 309.47223 589.5054L354.7361 453.7527C360.37524 455.63293 366.12604 457.15997 371.9551 458.32495Z" fill-rule="nonzero"/><path fill="#ff6d01" d="M654.76404 448.40598C596.42145 562.38544 469.4708 623.7441 343.9102 598.6499L371.9551 458.32495C434.7354 470.87204 498.21072 440.19272 527.382 383.20297Z" fill-rule="nonzero"/><path fill="#1a1a1a" d="M43.440624 183.40688L40.8 183.40688L40.3 176.7975L37.128124 183.40688L34.534374 183.40688L33.2375 173.03188L35.721874 173.03188L36.45625 179.985L39.675 173.03188L42.2375 173.03188L42.58125 179.985L45.8 173.03188L48.6125 173.03188L43.440624 183.40688ZM52.55 175.96938L49.815624 175.735Q50.284374 174.36 51.45625 173.57875Q52.628124 172.7975 54.55 172.7975Q56.55 172.7975 57.503124 173.61Q58.471874 174.40688 58.471874 175.56313Q58.471874 176.03188 58.378124 176.56313Q58.3 177.09438 57.8 179.32875Q57.39375 181.18813 57.39375 181.93813Q57.39375 182.59438 57.628124 183.40688L54.89375 183.40688Q54.7375 182.84438 54.690624 182.235Q54.08125 182.9225 53.26875 183.2975Q52.471874 183.65688 51.675 183.65688Q50.378124 183.65688 49.534374 182.81313Q48.70625 181.95375 48.70625 180.62563Q48.70625 179.14125 49.628124 178.26625Q50.55 177.37563 52.925 177.18813Q54.925 177.01625 55.596874 176.78188Q55.76875 176.20375 55.76875 175.84438Q55.76875 175.39125 55.409374 175.09438Q55.05 174.7975 54.33125 174.7975Q53.58125 174.7975 53.14375 175.11Q52.70625 175.40688 52.55 175.96938ZM55.221874 178.57875Q54.971874 178.64125 54.55 178.70375Q52.440624 178.95375 51.8 179.43813Q51.33125 179.7975 51.33125 180.39125Q51.33125 180.87563 51.675 181.21938Q52.034374 181.5475 52.6125 181.5475Q53.253124 181.5475 53.815624 181.25063Q54.378124 180.93813 54.64375 180.45375Q54.925 179.96938 55.14375 178.93813L55.221874 178.57875ZM59.58125 183.40688L62.58125 169.09438L65.37813 169.09438L62.378124 183.40688L59.58125 183.40688ZM65.58125 183.40688L68.58125 169.09438L71.37813 169.09438L68.37813 183.40688L65.58125 183.40688Z" fill-rule="nonzero"/><path fill="#9e9e9e" d="M32.815624 206.6725L35.503124 206.34438Q35.675 207.485 36.096874 207.9225Q36.534374 208.36 37.253124 208.36Q38.221874 208.36 38.846874 207.71938Q39.471874 207.07875 39.471874 206.06313Q39.471874 205.18813 38.95625 204.68813Q38.45625 204.1725 37.596874 204.1725Q37.39375 204.1725 37.159374 204.20375L37.64375 201.87563Q37.784374 201.89125 37.925 201.89125Q39.05 201.89125 39.628124 201.32875Q40.221874 200.75063 40.221874 199.76625Q40.221874 199.07875 39.815624 198.68813Q39.425 198.28188 38.784374 198.28188Q38.175 198.28188 37.690624 198.735Q37.221874 199.1725 36.940624 200.235L34.378124 199.735Q34.8625 198.15688 35.7375 197.2975Q37.05 196.03188 38.971874 196.03188Q40.95625 196.03188 41.971874 197.14125Q43.003124 198.235 43.003124 199.76625Q43.003124 200.87563 42.346874 201.78188Q41.690624 202.6725 40.55 203.09438Q41.45625 203.56313 41.878124 204.32875Q42.315624 205.09438 42.315624 205.9225Q42.315624 207.50063 41.190624 208.82875Q39.659374 210.65688 37.2375 210.65688Q35.425 210.65688 34.2375 209.61Q33.065624 208.56313 32.815624 206.6725ZM48.9875 207.485L43.346874 207.485L43.83125 205.14125L51.58125 196.09438L54.003124 196.09438L52.1125 205.11L53.8625 205.11L53.3625 207.485L51.6125 207.485L51.003124 210.40688L48.3625 210.40688L48.9875 207.485ZM49.4875 205.11L50.409374 200.64125L46.628124 205.11L49.4875 205.11ZM55.253124 207.70375L58.01875 207.70375L57.45625 210.40688L54.675 210.40688L55.253124 207.70375ZM65.9875 207.485L60.346874 207.485L60.83125 205.14125L68.58125 196.09438L71.00313 196.09438L69.1125 205.11L70.8625 205.11L70.3625 207.485L68.6125 207.485L68.00313 210.40688L65.3625 210.40688L65.9875 207.485ZM66.4875 205.11L67.40938 200.64125L63.628124 205.11L66.4875 205.11ZM72.6125 200.53188Q72.6125 198.6725 73.6125 197.26625Q74.62813 195.84438 76.44063 195.84438Q77.65938 195.84438 78.39375 196.62563Q79.14375 197.40688 79.14375 198.7975Q79.14375 199.95375 78.62813 201.12563Q78.12813 202.28188 77.25313 202.82875Q76.39375 203.36 75.31563 203.36Q74.1125 203.36 73.3625 202.61Q72.6125 201.84438 72.6125 200.53188ZM74.675 200.75063Q74.675 201.25063 74.89375 201.485Q75.1125 201.71938 75.47188 201.71938Q76.175 201.71938 76.64375 200.65688Q77.12813 199.59438 77.12813 198.40688Q77.12813 197.985 76.89375 197.75063Q76.675 197.50063 76.31563 197.50063Q75.90938 197.50063 75.58125 197.84438Q75.25313 198.1725 74.95625 199.15688Q74.675 200.14125 74.675 200.75063ZM75.53438 211.01625L73.28438 211.01625L85.22188 195.84438L87.45625 195.84438L75.53438 211.01625ZM81.56563 208.1725Q81.56563 206.2975 82.56563 204.89125Q83.58125 203.46938 85.37813 203.46938Q86.6125 203.46938 87.34688 204.25063Q88.08125 205.03188 88.08125 206.43813Q88.08125 207.57875 87.58125 208.75063Q87.08125 209.9225 86.20625 210.45375Q85.34688 211.00063 84.26875 211.00063Q83.05 211.00063 82.3 210.235Q81.56563 209.46938 81.56563 208.1725ZM83.6125 208.39125Q83.6125 208.87563 83.83125 209.11Q84.05 209.34438 84.425 209.34438Q85.12813 209.34438 85.59688 208.2975Q86.08125 207.235 86.08125 206.0475Q86.08125 205.61 85.84688 205.37563Q85.62813 205.12563 85.26875 205.12563Q84.84688 205.12563 84.51875 205.46938Q84.20625 205.81313 83.90938 206.7975Q83.6125 207.76625 83.6125 208.39125Z" fill-rule="nonzero"/><path stroke="#757575" stroke-width="1.0" stroke-linecap="butt" d="M31.8 189.90688L107.8 189.90688L160.1744 189.90688" fill-rule="nonzero"/><path fill="#9e9e9e" d="M162.1744 189.90688C162.1744 188.8023 161.27896 187.90688 160.1744 187.90688C159.06982 187.90688 158.1744 188.8023 158.1744 189.90688C158.1744 191.01144 159.06982 191.90688 160.1744 191.90688C161.27896 191.90688 162.1744 191.01144 162.1744 189.90688" fill-rule="nonzero"/><path fill="#1a1a1a" d="M43.440624 419.2L40.8 419.2L40.3 412.59064L37.128124 419.2L34.534374 419.2L33.2375 408.825L35.721874 408.825L36.45625 415.77814L39.675 408.825L42.2375 408.825L42.58125 415.77814L45.8 408.825L48.6125 408.825L43.440624 419.2ZM51.596874 404.8875L54.39375 404.8875L53.8625 407.41876L51.065624 407.41876L51.596874 404.8875ZM50.76875 408.825L53.565624 408.825L51.409374 419.2L48.596874 419.2L50.76875 408.825ZM56.815624 408.825L59.471874 408.825L59.190624 410.16876Q60.190624 409.3094 61.05 408.95Q61.909374 408.59064 62.878124 408.59064Q64.15938 408.59064 64.89375 409.325Q65.62813 410.04376 65.62813 411.2625Q65.62813 411.8094 65.3 413.325L64.08125 419.2L61.284374 419.2L62.51875 413.3094Q62.784374 411.9969 62.784374 411.73126Q62.784374 411.2 62.45625 410.90314Q62.14375 410.59064 61.58125 410.59064Q60.971874 410.59064 60.221874 411.10626Q59.471874 411.6219 59.034374 412.46564Q58.721874 413.075 58.33125 414.9344L57.440624 419.2L54.64375 419.2L56.815624 408.825ZM76.175 419.2L73.51875 419.2L73.75313 418.075Q73.00313 418.8094 72.25313 419.1375Q71.51875 419.45 70.59688 419.45Q68.9875 419.45 67.9875 418.35626Q66.9875 417.2469 66.9875 415.09064Q66.9875 412.60626 68.39375 410.60626Q69.8 408.59064 72.1125 408.59064Q74.20625 408.59064 75.2375 410.2469L76.3625 404.8875L79.175 404.8875L76.175 419.2ZM69.70625 414.98126Q69.70625 416.09064 70.26875 416.71564Q70.83125 417.34064 71.64375 417.34064Q72.40938 417.34064 73.06563 416.825Q73.7375 416.29376 74.12813 415.23126Q74.51875 414.15314 74.51875 413.16876Q74.51875 412.04376 73.90938 411.35626Q73.31563 410.65314 72.51875 410.65314Q71.28438 410.65314 70.4875 412.02814Q69.70625 413.3875 69.70625 414.98126ZM79.01875 414.8875Q79.01875 412.0125 80.64375 410.3094Q82.26875 408.59064 84.90938 408.59064Q87.20625 408.59064 88.4875 409.85626Q89.78438 411.10626 89.78438 413.2469Q89.78438 415.77814 88.175 417.6219Q86.56563 419.45 83.8625 419.45Q82.39375 419.45 81.25313 418.8719Q80.12813 418.27814 79.56563 417.2Q79.01875 416.1219 79.01875 414.8875ZM87.00313 412.8875Q87.00313 411.8875 86.40938 411.29376Q85.83125 410.7 84.925 410.7Q84.01875 410.7 83.31563 411.2625Q82.6125 411.8094 82.22188 412.8875Q81.83125 413.95 81.83125 414.85626Q81.83125 415.96564 82.425 416.6219Q83.03438 417.27814 83.95625 417.27814Q85.1125 417.27814 85.89375 416.29376Q87.00313 414.8875 87.00313 412.8875ZM101.44063 419.2L98.8 419.2L98.3 412.59064L95.12813 419.2L92.53438 419.2L91.2375 408.825L93.72188 408.825L94.45625 415.77814L97.675 408.825L100.2375 408.825L100.58125 415.77814L103.8 408.825L106.6125 408.825L101.44063 419.2Z" fill-rule="nonzero"/><path fill="#9e9e9e" d="M33.065624 442.09064L35.8 441.85626Q35.784374 442.04376 35.784374 442.15314Q35.784374 443.1375 36.221874 443.6375Q36.675 444.1375 37.39375 444.1375Q38.378124 444.1375 39.190624 443.1844Q40.01875 442.23126 40.01875 440.5594Q40.01875 439.5594 39.55 439.0594Q39.096874 438.54376 38.33125 438.54376Q37.784374 438.54376 37.26875 438.79376Q36.76875 439.04376 36.284374 439.575L33.971874 439.3875L36.159374 432.075L43.346874 432.075L42.83125 434.6375L38.065624 434.6375L37.409374 436.84064Q37.83125 436.65314 38.2375 436.5594Q38.64375 436.46564 39.05 436.46564Q40.690624 436.46564 41.7375 437.575Q42.8 438.6844 42.8 440.52814Q42.8 442.0125 42.05 443.46564Q41.315624 444.90314 40.003124 445.6844Q38.70625 446.45 37.26875 446.45Q35.440624 446.45 34.26875 445.2625Q33.096874 444.075 33.065624 442.09064ZM44.253124 443.4969L47.01875 443.4969L46.45625 446.2L43.675 446.2L44.253124 443.4969ZM53.096874 438.325Q52.346874 437.825 51.971874 437.1844Q51.596874 436.52814 51.596874 435.73126Q51.596874 434.8094 52.1125 433.8719Q52.64375 432.91876 53.690624 432.3719Q54.753124 431.825 56.08125 431.825Q57.9875 431.825 59.065624 432.825Q60.14375 433.8094 60.14375 435.34064Q60.14375 436.41876 59.534374 437.21564Q58.925 438.0125 57.721874 438.52814Q58.596874 439.075 59.034374 439.84064Q59.471874 440.60626 59.471874 441.59064Q59.471874 443.21564 58.425 444.54376Q56.925 446.45 54.315624 446.45Q52.425 446.45 51.26875 445.34064Q50.1125 444.21564 50.1125 442.48126Q50.1125 441.0594 50.909374 439.9344Q51.721874 438.79376 53.096874 438.325ZM54.159374 435.91876Q54.159374 436.59064 54.565624 437.0125Q54.9875 437.41876 55.64375 437.41876Q56.39375 437.41876 56.95625 436.85626Q57.534374 436.27814 57.534374 435.5125Q57.534374 434.825 57.1125 434.40314Q56.690624 433.96564 56.034374 433.96564Q55.26875 433.96564 54.70625 434.52814Q54.159374 435.09064 54.159374 435.91876ZM52.909374 442.54376Q52.909374 443.34064 53.346874 443.8094Q53.784374 444.2625 54.4875 444.2625Q55.58125 444.2625 56.159374 443.3094Q56.753124 442.34064 56.753124 441.21564Q56.753124 440.4969 56.3 440.04376Q55.846874 439.575 55.14375 439.575Q54.26875 439.575 53.58125 440.3875Q52.909374 441.1844 52.909374 442.54376ZM61.6125 436.325Q61.6125 434.46564 62.6125 433.0594Q63.628124 431.6375 65.44063 431.6375Q66.65938 431.6375 67.39375 432.41876Q68.14375 433.2 68.14375 434.59064Q68.14375 435.7469 67.62813 436.91876Q67.12813 438.075 66.25313 438.6219Q65.39375 439.15314 64.31563 439.15314Q63.1125 439.15314 62.3625 438.40314Q61.6125 437.6375 61.6125 436.325ZM63.675 436.54376Q63.675 437.04376 63.89375 437.27814Q64.1125 437.5125 64.47188 437.5125Q65.175 437.5125 65.64375 436.45Q66.12813 435.3875 66.12813 434.2Q66.12813 433.77814 65.89375 433.54376Q65.675 433.29376 65.31563 433.29376Q64.90938 433.29376 64.58125 433.6375Q64.25313 433.96564 63.95625 434.95Q63.675 435.9344 63.675 436.54376ZM64.53438 446.8094L62.284374 446.8094L74.22188 431.6375L76.45625 431.6375L64.53438 446.8094ZM70.56563 443.96564Q70.56563 442.09064 71.56563 440.6844Q72.58125 439.2625 74.37813 439.2625Q75.6125 439.2625 76.34688 440.04376Q77.08125 440.825 77.08125 442.23126Q77.08125 443.3719 76.58125 444.54376Q76.08125 445.71564 75.20625 446.2469Q74.34688 446.79376 73.26875 446.79376Q72.05 446.79376 71.3 446.02814Q70.56563 445.2625 70.56563 443.96564ZM72.6125 444.1844Q72.6125 444.66876 72.83125 444.90314Q73.05 445.1375 73.425 445.1375Q74.12813 445.1375 74.59688 444.09064Q75.08125 443.02814 75.08125 441.84064Q75.08125 441.40314 74.84688 441.16876Q74.62813 440.91876 74.26875 440.91876Q73.84688 440.91876 73.51875 441.2625Q73.20625 441.60626 72.90938 442.59064Q72.6125 443.5594 72.6125 444.1844Z" fill-rule="nonzero"/><path stroke="#757575" stroke-width="1.0" stroke-linecap="butt" d="M31.8 425.7L107.8 425.7L204.92053 507.38895" fill-rule="nonzero"/><path fill="#9e9e9e" d="M206.92053 507.38895C206.92053 506.2844 206.0251 505.38895 204.92053 505.38895C203.81596 505.38895 202.92053 506.2844 202.92053 507.38895C202.92053 508.49353 203.81596 509.38895 204.92053 509.38895C206.0251 509.38895 206.92053 508.49353 206.92053 507.38895" fill-rule="nonzero"/><path fill="#1a1a1a" d="M39.628124 466.29376L42.3625 466.73126Q41.690624 468.54376 40.3625 469.4969Q39.05 470.45 37.315624 470.45Q35.33125 470.45 34.159374 469.2625Q33.003124 468.075 33.003124 466.0125Q33.003124 464.325 33.70625 462.825Q34.409374 461.3094 35.815624 460.45Q37.2375 459.59064 38.925 459.59064Q40.76875 459.59064 41.8625 460.54376Q42.95625 461.4969 43.096874 463.0594L40.425 463.34064Q40.33125 462.48126 39.89375 462.075Q39.45625 461.65314 38.753124 461.65314Q37.940624 461.65314 37.2375 462.2625Q36.534374 462.8719 36.159374 464.075Q35.784374 465.27814 35.784374 466.325Q35.784374 467.2469 36.2375 467.7469Q36.690624 468.2469 37.3625 468.2469Q38.034374 468.2469 38.659374 467.7625Q39.284374 467.2625 39.628124 466.29376ZM43.01875 465.8875Q43.01875 463.0125 44.64375 461.3094Q46.26875 459.59064 48.909374 459.59064Q51.20625 459.59064 52.4875 460.85626Q53.784374 462.10626 53.784374 464.2469Q53.784374 466.77814 52.175 468.6219Q50.565624 470.45 47.8625 470.45Q46.39375 470.45 45.253124 469.8719Q44.128124 469.27814 43.565624 468.2Q43.01875 467.1219 43.01875 465.8875ZM51.003124 463.8875Q51.003124 462.8875 50.409374 462.29376Q49.83125 461.7 48.925 461.7Q48.01875 461.7 47.315624 462.2625Q46.6125 462.8094 46.221874 463.8875Q45.83125 464.95 45.83125 465.85626Q45.83125 466.96564 46.425 467.6219Q47.034374 468.27814 47.95625 468.27814Q49.1125 468.27814 49.89375 467.29376Q51.003124 465.8875 51.003124 463.8875ZM54.58125 470.2L57.58125 455.8875L60.378124 455.8875L57.378124 470.2L54.58125 470.2ZM62.753124 459.825L65.55 459.825L64.26875 465.96564Q64.03438 467.075 64.03438 467.34064Q64.03438 467.79376 64.3625 468.1219Q64.70625 468.4344 65.22188 468.4344Q65.59688 468.4344 65.95625 468.29376Q66.31563 468.15314 66.69063 467.8719Q67.08125 467.575 67.37813 467.21564Q67.675 466.84064 67.94063 466.23126Q68.12813 465.77814 68.34688 464.7625L69.37813 459.825L72.19063 459.825L70.01875 470.2L67.39375 470.2L67.69063 468.79376Q65.97188 470.45 63.95625 470.45Q62.675 470.45 61.940624 469.71564Q61.20625 468.98126 61.20625 467.7469Q61.20625 467.21564 61.534374 465.60626L62.753124 459.825ZM74.675 459.825L77.31563 459.825L77.05 461.09064Q78.59688 459.59064 80.3 459.59064Q81.47188 459.59064 82.09688 460.075Q82.7375 460.5594 82.90938 461.41876Q83.45625 460.6375 84.45625 460.1219Q85.45625 459.59064 86.55 459.59064Q87.78438 459.59064 88.47188 460.2625Q89.175 460.91876 89.175 462.0125Q89.175 462.54376 88.89375 463.85626L87.56563 470.2L84.76875 470.2L86.09688 463.85626Q86.34688 462.66876 86.34688 462.5125Q86.34688 462.09064 86.08125 461.84064Q85.83125 461.59064 85.3 461.59064Q84.26875 461.59064 83.44063 462.6844Q82.84688 463.48126 82.425 465.4969L81.44063 470.2L78.64375 470.2L79.94063 463.9344Q80.175 462.84064 80.175 462.52814Q80.175 462.10626 79.89375 461.85626Q79.6125 461.59064 79.12813 461.59064Q78.65938 461.59064 78.175 461.8719Q77.69063 462.1375 77.31563 462.6219Q76.95625 463.09064 76.69063 463.84064Q76.58125 464.2 76.31563 465.4344L75.31563 470.2L72.51875 470.2L74.675 459.825ZM91.81563 459.825L94.47188 459.825L94.19063 461.16876Q95.19063 460.3094 96.05 459.95Q96.90938 459.59064 97.87813 459.59064Q99.15938 459.59064 99.89375 460.325Q100.62813 461.04376 100.62813 462.2625Q100.62813 462.8094 100.3 464.325L99.08125 470.2L96.28438 470.2L97.51875 464.3094Q97.78438 462.9969 97.78438 462.73126Q97.78438 462.2 97.45625 461.90314Q97.14375 461.59064 96.58125 461.59064Q95.97188 461.59064 95.22188 462.10626Q94.47188 462.6219 94.03438 463.46564Q93.72188 464.075 93.33125 465.9344L92.44063 470.2L89.64375 470.2L91.81563 459.825Z" fill-rule="nonzero"/><path fill="#9e9e9e" d="M34.175 488.98126L34.70625 486.48126Q38.33125 484.8875 40.3 482.79376L42.01875 482.79376L39.003124 497.2L36.175 497.2L38.253124 487.27814Q37.378124 487.84064 36.221874 488.3094Q35.08125 488.77814 34.175 488.98126ZM44.253124 494.4969L47.01875 494.4969L46.45625 497.2L43.675 497.2L44.253124 494.4969ZM50.065624 493.90314L52.690624 493.6844Q52.76875 494.52814 53.096874 494.8719Q53.425 495.2 53.9875 495.2Q54.70625 495.2 55.253124 494.65314Q56.05 493.84064 56.51875 492.02814Q55.6125 492.6219 54.596874 492.6219Q52.940624 492.6219 51.8625 491.4969Q50.8 490.35626 50.8 488.40314Q50.8 486.21564 52.175 484.52814Q53.55 482.825 55.815624 482.825Q57.83125 482.825 58.89375 484.29376Q59.95625 485.7469 59.95625 488.2469Q59.95625 492.10626 58.253124 494.77814Q56.55 497.45 53.76875 497.45Q52.14375 497.45 51.159374 496.5125Q50.190624 495.575 50.065624 493.90314ZM57.26875 487.27814Q57.26875 486.1375 56.815624 485.60626Q56.3625 485.075 55.70625 485.075Q54.878124 485.075 54.3 485.84064Q53.503124 486.8719 53.503124 488.59064Q53.503124 489.71564 53.940624 490.2469Q54.39375 490.77814 55.01875 490.77814Q55.565624 490.77814 56.1125 490.3719Q56.659374 489.95 56.95625 489.075Q57.26875 488.1844 57.26875 487.27814ZM61.6125 487.325Q61.6125 485.46564 62.6125 484.0594Q63.628124 482.6375 65.44063 482.6375Q66.65938 482.6375 67.39375 483.41876Q68.14375 484.2 68.14375 485.59064Q68.14375 486.7469 67.62813 487.91876Q67.12813 489.075 66.25313 489.6219Q65.39375 490.15314 64.31563 490.15314Q63.1125 490.15314 62.3625 489.40314Q61.6125 488.6375 61.6125 487.325ZM63.675 487.54376Q63.675 488.04376 63.89375 488.27814Q64.1125 488.5125 64.47188 488.5125Q65.175 488.5125 65.64375 487.45Q66.12813 486.3875 66.12813 485.2Q66.12813 484.77814 65.89375 484.54376Q65.675 484.29376 65.31563 484.29376Q64.90938 484.29376 64.58125 484.6375Q64.25313 484.96564 63.95625 485.95Q63.675 486.9344 63.675 487.54376ZM64.53438 497.8094L62.284374 497.8094L74.22188 482.6375L76.45625 482.6375L64.53438 497.8094ZM70.56563 494.96564Q70.56563 493.09064 71.56563 491.6844Q72.58125 490.2625 74.37813 490.2625Q75.6125 490.2625 76.34688 491.04376Q77.08125 491.825 77.08125 493.23126Q77.08125 494.3719 76.58125 495.54376Q76.08125 496.71564 75.20625 497.2469Q74.34688 497.79376 73.26875 497.79376Q72.05 497.79376 71.3 497.02814Q70.56563 496.2625 70.56563 494.96564ZM72.6125 495.1844Q72.6125 495.66876 72.83125 495.90314Q73.05 496.1375 73.425 496.1375Q74.12813 496.1375 74.59688 495.09064Q75.08125 494.02814 75.08125 492.84064Q75.08125 492.40314 74.84688 492.16876Q74.62813 491.91876 74.26875 491.91876Q73.84688 491.91876 73.51875 492.2625Q73.20625 492.60626 72.90938 493.59064Q72.6125 494.5594 72.6125 495.1844Z" fill-rule="nonzero"/><path stroke="#757575" stroke-width="1.0" stroke-linecap="butt" d="M31.8 476.7L107.8 476.7L273.02264 558.4182" fill-rule="nonzero"/><path fill="#9e9e9e" d="M275.02264 558.4182C275.02264 557.31366 274.12723 556.4182 273.02264 556.4182C271.9181 556.4182 271.02264 557.31366 271.02264 558.4182C271.02264 559.5228 271.9181 560.4182 273.02264 560.4182C274.12723 560.4182 275.02264 559.5228 275.02264 558.4182" fill-rule="nonzero"/><path fill="#1a1a1a" d="M32.51875 521.2L35.51875 506.8875L38.33125 506.8875L37.315624 511.66876Q38.096874 511.075 38.753124 510.84064Q39.425 510.59064 40.221874 510.59064Q41.8625 510.59064 42.846874 511.6844Q43.83125 512.77814 43.83125 514.8875Q43.83125 516.29376 43.3625 517.6375Q42.909374 518.96564 42.128124 519.8094Q41.346874 520.6375 40.4875 521.04376Q39.64375 521.45 38.70625 521.45Q36.471874 521.45 35.440624 519.4969L35.065624 521.2L32.51875 521.2ZM36.3 516.96564Q36.3 518.0125 36.89375 518.66876Q37.4875 519.325 38.284374 519.325Q38.9875 519.325 39.628124 518.825Q40.26875 518.3094 40.690624 517.2Q41.1125 516.075 41.1125 514.95Q41.1125 513.84064 40.534374 513.21564Q39.971874 512.59064 39.159374 512.59064Q38.1125 512.59064 37.346874 513.5594Q36.3 514.90314 36.3 516.96564ZM48.55 513.7625L45.815624 513.52814Q46.284374 512.15314 47.45625 511.3719Q48.628124 510.59064 50.55 510.59064Q52.55 510.59064 53.503124 511.40314Q54.471874 512.2 54.471874 513.35626Q54.471874 513.825 54.378124 514.35626Q54.3 514.8875 53.8 517.1219Q53.39375 518.98126 53.39375 519.73126Q53.39375 520.3875 53.628124 521.2L50.89375 521.2Q50.7375 520.6375 50.690624 520.02814Q50.08125 520.71564 49.26875 521.09064Q48.471874 521.45 47.675 521.45Q46.378124 521.45 45.534374 520.60626Q44.70625 519.7469 44.70625 518.41876Q44.70625 516.9344 45.628124 516.0594Q46.55 515.16876 48.925 514.98126Q50.925 514.8094 51.596874 514.575Q51.76875 513.9969 51.76875 513.6375Q51.76875 513.1844 51.409374 512.8875Q51.05 512.59064 50.33125 512.59064Q49.58125 512.59064 49.14375 512.90314Q48.70625 513.2 48.55 513.7625ZM51.221874 516.3719Q50.971874 516.4344 50.55 516.4969Q48.440624 516.7469 47.8 517.23126Q47.33125 517.59064 47.33125 518.1844Q47.33125 518.66876 47.675 519.0125Q48.034374 519.34064 48.6125 519.34064Q49.253124 519.34064 49.815624 519.04376Q50.378124 518.73126 50.64375 518.2469Q50.925 517.7625 51.14375 516.73126L51.221874 516.3719ZM55.58125 521.2L58.58125 506.8875L61.378124 506.8875L58.378124 521.2L55.58125 521.2ZM68.62813 517.29376L71.3625 517.73126Q70.69063 519.54376 69.3625 520.4969Q68.05 521.45 66.31563 521.45Q64.33125 521.45 63.159374 520.2625Q62.003124 519.075 62.003124 517.0125Q62.003124 515.325 62.70625 513.825Q63.409374 512.3094 64.81563 511.45Q66.2375 510.59064 67.925 510.59064Q69.76875 510.59064 70.8625 511.54376Q71.95625 512.4969 72.09688 514.0594L69.425 514.34064Q69.33125 513.48126 68.89375 513.075Q68.45625 512.65314 67.75313 512.65314Q66.94063 512.65314 66.2375 513.2625Q65.53438 513.8719 65.15938 515.075Q64.78438 516.27814 64.78438 517.325Q64.78438 518.2469 65.2375 518.7469Q65.69063 519.2469 66.3625 519.2469Q67.03438 519.2469 67.65938 518.7625Q68.28438 518.2625 68.62813 517.29376ZM72.01875 516.8875Q72.01875 514.0125 73.64375 512.3094Q75.26875 510.59064 77.90938 510.59064Q80.20625 510.59064 81.4875 511.85626Q82.78438 513.10626 82.78438 515.2469Q82.78438 517.77814 81.175 519.6219Q79.56563 521.45 76.8625 521.45Q75.39375 521.45 74.25313 520.8719Q73.12813 520.27814 72.56563 519.2Q72.01875 518.1219 72.01875 516.8875ZM80.00313 514.8875Q80.00313 513.8875 79.40938 513.29376Q78.83125 512.7 77.925 512.7Q77.01875 512.7 76.31563 513.2625Q75.6125 513.8094 75.22188 514.8875Q74.83125 515.95 74.83125 516.85626Q74.83125 517.96564 75.425 518.6219Q76.03438 519.27814 76.95625 519.27814Q78.1125 519.27814 78.89375 518.29376Q80.00313 516.8875 80.00313 514.8875ZM85.81563 510.825L88.47188 510.825L88.19063 512.16876Q89.19063 511.3094 90.05 510.95Q90.90938 510.59064 91.87813 510.59064Q93.15938 510.59064 93.89375 511.325Q94.62813 512.04376 94.62813 513.2625Q94.62813 513.8094 94.3 515.325L93.08125 521.2L90.28438 521.2L91.51875 515.3094Q91.78438 513.9969 91.78438 513.73126Q91.78438 513.2 91.45625 512.90314Q91.14375 512.59064 90.58125 512.59064Q89.97188 512.59064 89.22188 513.10626Q88.47188 513.6219 88.03438 514.46564Q87.72188 515.075 87.33125 516.9344L86.44063 521.2L83.64375 521.2L85.81563 510.825ZM96.47188 510.825L99.26875 510.825L99.97188 515.9969Q100.2375 517.98126 100.25313 518.79376Q100.8 517.2 101.76875 515.4344L104.2375 510.825L107.20625 510.825L100.8 522.21564Q100.01875 523.6375 99.56563 524.2Q99.1125 524.7625 98.47188 525.075Q97.83125 525.40314 96.925 525.40314Q96.03438 525.40314 94.925 525.09064L95.175 523.0125Q95.675 523.15314 96.15938 523.15314Q97.44063 523.15314 98.28438 521.2L96.47188 510.825Z" fill-rule="nonzero"/><path fill="#9e9e9e" d="M34.175 539.98126L34.70625 537.48126Q38.33125 535.8875 40.3 533.79376L42.01875 533.79376L39.003124 548.2L36.175 548.2L38.253124 538.27814Q37.378124 538.84064 36.221874 539.3094Q35.08125 539.77814 34.175 539.98126ZM44.253124 545.4969L47.01875 545.4969L46.45625 548.2L43.675 548.2L44.253124 545.4969ZM50.878124 536.66876L51.409374 534.075L60.846874 534.075L60.425 536.075Q59.534374 536.79376 58.440624 538.2469Q57.3625 539.7 56.440624 541.4969Q55.51875 543.27814 54.940624 544.8875Q54.128124 547.1219 53.925 548.2L51.26875 548.2Q51.440624 547.1219 52.096874 545.2469Q52.89375 542.95 54.096874 540.8094Q55.3 538.65314 56.9875 536.66876L50.878124 536.66876ZM61.6125 538.325Q61.6125 536.46564 62.6125 535.0594Q63.628124 533.6375 65.44063 533.6375Q66.65938 533.6375 67.39375 534.41876Q68.14375 535.2 68.14375 536.59064Q68.14375 537.7469 67.62813 538.91876Q67.12813 540.075 66.25313 540.6219Q65.39375 541.15314 64.31563 541.15314Q63.1125 541.15314 62.3625 540.40314Q61.6125 539.6375 61.6125 538.325ZM63.675 538.54376Q63.675 539.04376 63.89375 539.27814Q64.1125 539.5125 64.47188 539.5125Q65.175 539.5125 65.64375 538.45Q66.12813 537.3875 66.12813 536.2Q66.12813 535.77814 65.89375 535.54376Q65.675 535.29376 65.31563 535.29376Q64.90938 535.29376 64.58125 535.6375Q64.25313 535.96564 63.95625 536.95Q63.675 537.9344 63.675 538.54376ZM64.53438 548.8094L62.284374 548.8094L74.22188 533.6375L76.45625 533.6375L64.53438 548.8094ZM70.56563 545.96564Q70.56563 544.09064 71.56563 542.6844Q72.58125 541.2625 74.37813 541.2625Q75.6125 541.2625 76.34688 542.04376Q77.08125 542.825 77.08125 544.23126Q77.08125 545.3719 76.58125 546.54376Q76.08125 547.71564 75.20625 548.2469Q74.34688 548.79376 73.26875 548.79376Q72.05 548.79376 71.3 548.02814Q70.56563 547.2625 70.56563 545.96564ZM72.6125 546.1844Q72.6125 546.66876 72.83125 546.90314Q73.05 547.1375 73.425 547.1375Q74.12813 547.1375 74.59688 546.09064Q75.08125 545.02814 75.08125 543.84064Q75.08125 543.40314 74.84688 543.16876Q74.62813 542.91876 74.26875 542.91876Q73.84688 542.91876 73.51875 543.2625Q73.20625 543.60626 72.90938 544.59064Q72.6125 545.5594 72.6125 546.1844Z" fill-rule="nonzero"/><path stroke="#757575" stroke-width="1.0" stroke-linecap="butt" d="M31.8 527.7L107.8 527.7L300.52692 571.04004" fill-rule="nonzero"/><path fill="#9e9e9e" d="M302.52692 571.04004C302.52692 569.9355 301.63147 569.04004 300.52692 569.04004C299.42233 569.04004 298.52692 569.9355 298.52692 571.04004C298.52692 572.14465 299.42233 573.04004 300.52692 573.04004C301.63147 573.04004 302.52692 572.14465 302.52692 571.04004" fill-rule="nonzero"/><path fill="#1a1a1a" d="M42.175 572.2L39.51875 572.2L39.753124 571.075Q39.003124 571.8094 38.253124 572.1375Q37.51875 572.45 36.596874 572.45Q34.9875 572.45 33.9875 571.35626Q32.9875 570.2469 32.9875 568.09064Q32.9875 565.60626 34.39375 563.60626Q35.8 561.59064 38.1125 561.59064Q40.20625 561.59064 41.2375 563.2469L42.3625 557.8875L45.175 557.8875L42.175 572.2ZM35.70625 567.98126Q35.70625 569.09064 36.26875 569.71564Q36.83125 570.34064 37.64375 570.34064Q38.409374 570.34064 39.065624 569.825Q39.7375 569.29376 40.128124 568.23126Q40.51875 567.15314 40.51875 566.16876Q40.51875 565.04376 39.909374 564.35626Q39.315624 563.65314 38.51875 563.65314Q37.284374 563.65314 36.4875 565.02814Q35.70625 566.3875 35.70625 567.98126ZM45.01875 567.8875Q45.01875 565.0125 46.64375 563.3094Q48.26875 561.59064 50.909374 561.59064Q53.20625 561.59064 54.4875 562.85626Q55.784374 564.10626 55.784374 566.2469Q55.784374 568.77814 54.175 570.6219Q52.565624 572.45 49.8625 572.45Q48.39375 572.45 47.253124 571.8719Q46.128124 571.27814 45.565624 570.2Q45.01875 569.1219 45.01875 567.8875ZM53.003124 565.8875Q53.003124 564.8875 52.409374 564.29376Q51.83125 563.7 50.925 563.7Q50.01875 563.7 49.315624 564.2625Q48.6125 564.8094 48.221874 565.8875Q47.83125 566.95 47.83125 567.85626Q47.83125 568.96564 48.425 569.6219Q49.034374 570.27814 49.95625 570.27814Q51.1125 570.27814 51.89375 569.29376Q53.003124 567.8875 53.003124 565.8875ZM57.01875 567.8875Q57.01875 565.0125 58.64375 563.3094Q60.26875 561.59064 62.909374 561.59064Q65.20625 561.59064 66.4875 562.85626Q67.78438 564.10626 67.78438 566.2469Q67.78438 568.77814 66.175 570.6219Q64.56563 572.45 61.8625 572.45Q60.39375 572.45 59.253124 571.8719Q58.128124 571.27814 57.565624 570.2Q57.01875 569.1219 57.01875 567.8875ZM65.00313 565.8875Q65.00313 564.8875 64.40938 564.29376Q63.83125 563.7 62.925 563.7Q62.01875 563.7 61.315624 564.2625Q60.6125 564.8094 60.221874 565.8875Q59.83125 566.95 59.83125 567.85626Q59.83125 568.96564 60.425 569.6219Q61.034374 570.27814 61.95625 570.27814Q63.1125 570.27814 63.89375 569.29376Q65.00313 567.8875 65.00313 565.8875ZM70.6125 561.825L73.2375 561.825L72.81563 563.84064Q74.26875 561.59064 75.9875 561.59064Q76.59688 561.59064 77.28438 561.8875L76.20625 564.1844Q75.83125 564.04376 75.39375 564.04376Q74.675 564.04376 73.925 564.59064Q73.175 565.1375 72.75313 566.0594Q72.34688 566.96564 71.925 568.95L71.25313 572.2L68.44063 572.2L70.6125 561.825Z" fill-rule="nonzero"/><path fill="#9e9e9e" d="M37.08125 589.34064L34.346874 588.9344Q34.675 586.95 35.878124 585.8875Q37.096874 584.825 38.925 584.825Q40.925 584.825 42.065624 585.91876Q43.221874 586.9969 43.221874 588.66876Q43.221874 589.5125 42.8625 590.3719Q42.51875 591.21564 41.70625 592.15314Q41.14375 592.825 39.83125 594.04376Q38.51875 595.2469 38.096874 595.7Q37.675 596.1375 37.284374 596.6375L42.2375 596.6375L41.70625 599.2L33.01875 599.2Q33.14375 598.1375 33.628124 597.2Q34.1125 596.2469 34.83125 595.4344Q35.565624 594.60626 37.4875 592.77814Q38.925 591.3875 39.315624 590.96564Q39.9875 590.2 40.2375 589.65314Q40.503124 589.09064 40.503124 588.6375Q40.503124 587.91876 40.08125 587.48126Q39.659374 587.02814 39.003124 587.02814Q38.33125 587.02814 37.83125 587.52814Q37.33125 588.02814 37.08125 589.34064ZM44.253124 596.4969L47.01875 596.4969L46.45625 599.2L43.675 599.2L44.253124 596.4969ZM50.096874 594.54376Q50.096874 592.3875 50.815624 590.16876Q51.721874 587.46564 53.128124 586.15314Q54.534374 584.825 56.253124 584.825Q57.9875 584.825 59.096874 586.09064Q60.221874 587.34064 60.221874 589.7469Q60.221874 591.95 59.409374 594.40314Q58.596874 596.84064 57.20625 598.15314Q55.815624 599.45 54.08125 599.45Q52.346874 599.45 51.221874 598.1844Q50.096874 596.91876 50.096874 594.54376ZM52.846874 595.10626Q52.846874 596.2625 53.20625 596.73126Q53.58125 597.2 54.175 597.2Q54.95625 597.2 55.565624 596.48126Q56.3625 595.5125 56.9875 592.66876Q57.4875 590.40314 57.4875 589.09064Q57.4875 588.0125 57.1125 587.54376Q56.7375 587.075 56.159374 587.075Q55.409374 587.075 54.83125 587.77814Q53.9875 588.825 53.378124 591.41876Q52.846874 593.6844 52.846874 595.10626ZM61.6125 589.325Q61.6125 587.46564 62.6125 586.0594Q63.628124 584.6375 65.44063 584.6375Q66.65938 584.6375 67.39375 585.41876Q68.14375 586.2 68.14375 587.59064Q68.14375 588.7469 67.62813 589.91876Q67.12813 591.075 66.25313 591.6219Q65.39375 592.15314 64.31563 592.15314Q63.1125 592.15314 62.3625 591.40314Q61.6125 590.6375 61.6125 589.325ZM63.675 589.54376Q63.675 590.04376 63.89375 590.27814Q64.1125 590.5125 64.47188 590.5125Q65.175 590.5125 65.64375 589.45Q66.12813 588.3875 66.12813 587.2Q66.12813 586.77814 65.89375 586.54376Q65.675 586.29376 65.31563 586.29376Q64.90938 586.29376 64.58125 586.6375Q64.25313 586.96564 63.95625 587.95Q63.675 588.9344 63.675 589.54376ZM64.53438 599.8094L62.284374 599.8094L74.22188 584.6375L76.45625 584.6375L64.53438 599.8094ZM70.56563 596.96564Q70.56563 595.09064 71.56563 593.6844Q72.58125 592.2625 74.37813 592.2625Q75.6125 592.2625 76.34688 593.04376Q77.08125 593.825 77.08125 595.23126Q77.08125 596.3719 76.58125 597.54376Q76.08125 598.71564 75.20625 599.2469Q74.34688 599.79376 73.26875 599.79376Q72.05 599.79376 71.3 599.02814Q70.56563 598.2625 70.56563 596.96564ZM72.6125 597.1844Q72.6125 597.66876 72.83125 597.90314Q73.05 598.1375 73.425 598.1375Q74.12813 598.1375 74.59688 597.09064Q75.08125 596.02814 75.08125 594.84064Q75.08125 594.40314 74.84688 594.16876Q74.62813 593.91876 74.26875 593.91876Q73.84688 593.91876 73.51875 594.2625Q73.20625 594.60626 72.90938 595.59064Q72.6125 596.5594 72.6125 597.1844Z" fill-rule="nonzero"/><path stroke="#757575" stroke-width="1.0" stroke-linecap="butt" d="M31.8 578.7L107.8 578.7L330.2213 580.7834" fill-rule="nonzero"/><path fill="#9e9e9e" d="M332.2213 580.7834C332.2213 579.67883 331.3259 578.7834 330.2213 578.7834C329.11676 578.7834 328.2213 579.67883 328.2213 580.7834C328.2213 581.88794 329.11676 582.7834 330.2213 582.7834C331.3259 582.7834 332.2213 581.88794 332.2213 580.7834" fill-rule="nonzero"/><path fill="#1a1a1a" d="M732.0125 87.54729L734.6375 87.54729L734.21564 89.56291Q735.66876 87.31291 737.3875 87.31291Q737.9969 87.31291 738.6844 87.60979L737.60626 89.90666Q737.23126 89.76604 736.79376 89.76604Q736.075 89.76604 735.325 90.31291Q734.575 90.85979 734.15314 91.78166Q733.7469 92.68791 733.325 94.67229L732.65314 97.92229L729.84064 97.92229L732.0125 87.54729ZM738.41876 93.60979Q738.41876 90.73479 740.04376 89.03166Q741.66876 87.31291 744.3094 87.31291Q746.60626 87.31291 747.8875 88.57854Q749.1844 89.82854 749.1844 91.96916Q749.1844 94.50041 747.575 96.34416Q745.96564 98.17229 743.2625 98.17229Q741.79376 98.17229 740.65314 97.59416Q739.52814 97.00041 738.96564 95.92229Q738.41876 94.84416 738.41876 93.60979ZM746.40314 91.60979Q746.40314 90.60979 745.8094 90.01604Q745.23126 89.42229 744.325 89.42229Q743.41876 89.42229 742.71564 89.98479Q742.0125 90.53166 741.6219 91.60979Q741.23126 92.67229 741.23126 93.57854Q741.23126 94.68791 741.825 95.34416Q742.4344 96.00041 743.35626 96.00041Q744.5125 96.00041 745.29376 95.01604Q746.40314 93.60979 746.40314 91.60979ZM750.41876 93.60979Q750.41876 90.73479 752.04376 89.03166Q753.66876 87.31291 756.3094 87.31291Q758.60626 87.31291 759.8875 88.57854Q761.1844 89.82854 761.1844 91.96916Q761.1844 94.50041 759.575 96.34416Q757.96564 98.17229 755.2625 98.17229Q753.79376 98.17229 752.65314 97.59416Q751.52814 97.00041 750.96564 95.92229Q750.41876 94.84416 750.41876 93.60979ZM758.40314 91.60979Q758.40314 90.60979 757.8094 90.01604Q757.23126 89.42229 756.325 89.42229Q755.41876 89.42229 754.71564 89.98479Q754.0125 90.53166 753.6219 91.60979Q753.23126 92.67229 753.23126 93.57854Q753.23126 94.68791 753.825 95.34416Q754.4344 96.00041 755.35626 96.00041Q756.5125 96.00041 757.29376 95.01604Q758.40314 93.60979 758.40314 91.60979ZM769.23126 87.54729L768.79376 89.59416L766.8094 89.59416L765.075 97.92229L762.27814 97.92229L764.0125 89.59416L762.45 89.59416L762.8875 87.54729L764.45 87.54729L764.66876 86.48479Q764.9344 85.17229 765.1844 84.71916Q765.5125 84.09416 766.16876 83.73479Q766.84064 83.35979 767.90314 83.35979Q769.1844 83.35979 770.6219 83.82854L770.075 85.82854Q769.0594 85.48479 768.4344 85.48479Q767.96564 85.48479 767.73126 85.79729Q767.575 85.98479 767.40314 86.81291L767.2469 87.54729L769.23126 87.54729Z" fill-rule="nonzero"/><path fill="#9e9e9e" d="M717.48126 115.06291L714.7469 114.65666Q715.075 112.67229 716.27814 111.60979Q717.4969 110.54729 719.325 110.54729Q721.325 110.54729 722.46564 111.64104Q723.6219 112.71916 723.6219 114.39104Q723.6219 115.23479 723.2625 116.09416Q722.91876 116.93791 722.10626 117.87541Q721.54376 118.54729 720.23126 119.76604Q718.91876 120.96916 718.4969 121.42229Q718.075 121.85979 717.6844 122.35979L722.6375 122.35979L722.10626 124.92229L713.41876 124.92229Q713.54376 123.85979 714.02814 122.92229Q714.5125 121.96916 715.23126 121.15666Q715.96564 120.32854 717.8875 118.50041Q719.325 117.10979 719.71564 116.68791Q720.3875 115.92229 720.6375 115.37541Q720.90314 114.81291 720.90314 114.35979Q720.90314 113.64104 720.48126 113.20354Q720.0594 112.75041 719.40314 112.75041Q718.73126 112.75041 718.23126 113.25041Q717.73126 113.75041 717.48126 115.06291ZM725.575 116.70354L726.10626 114.20354Q729.73126 112.60979 731.7 110.51604L733.41876 110.51604L730.40314 124.92229L727.575 124.92229L729.65314 115.00041Q728.77814 115.56291 727.6219 116.03166Q726.48126 116.50041 725.575 116.70354ZM735.65314 122.21916L738.41876 122.21916L737.85626 124.92229L735.075 124.92229L735.65314 122.21916ZM745.48126 115.06291L742.7469 114.65666Q743.075 112.67229 744.27814 111.60979Q745.4969 110.54729 747.325 110.54729Q749.325 110.54729 750.46564 111.64104Q751.6219 112.71916 751.6219 114.39104Q751.6219 115.23479 751.2625 116.09416Q750.91876 116.93791 750.10626 117.87541Q749.54376 118.54729 748.23126 119.76604Q746.91876 120.96916 746.4969 121.42229Q746.075 121.85979 745.6844 122.35979L750.6375 122.35979L750.10626 124.92229L741.41876 124.92229Q741.54376 123.85979 742.02814 122.92229Q742.5125 121.96916 743.23126 121.15666Q743.96564 120.32854 745.8875 118.50041Q747.325 117.10979 747.71564 116.68791Q748.3875 115.92229 748.6375 115.37541Q748.90314 114.81291 748.90314 114.35979Q748.90314 113.64104 748.48126 113.20354Q748.0594 112.75041 747.40314 112.75041Q746.73126 112.75041 746.23126 113.25041Q745.73126 113.75041 745.48126 115.06291ZM753.0125 115.04729Q753.0125 113.18791 754.0125 111.78166Q755.02814 110.35979 756.84064 110.35979Q758.0594 110.35979 758.79376 111.14104Q759.54376 111.92229 759.54376 113.31291Q759.54376 114.46916 759.02814 115.64104Q758.52814 116.79729 757.65314 117.34416Q756.79376 117.87541 755.71564 117.87541Q754.5125 117.87541 753.7625 117.12541Q753.0125 116.35979 753.0125 115.04729ZM755.075 115.26604Q755.075 115.76604 755.29376 116.00041Q755.5125 116.23479 755.8719 116.23479Q756.575 116.23479 757.04376 115.17229Q757.52814 114.10979 757.52814 112.92229Q757.52814 112.50041 757.29376 112.26604Q757.075 112.01604 756.71564 112.01604Q756.3094 112.01604 755.98126 112.35979Q755.65314 112.68791 755.35626 113.67229Q755.075 114.65666 755.075 115.26604ZM755.9344 125.53166L753.6844 125.53166L765.6219 110.35979L767.85626 110.35979L755.9344 125.53166ZM761.96564 122.68791Q761.96564 120.81291 762.96564 119.40666Q763.98126 117.98479 765.77814 117.98479Q767.0125 117.98479 767.7469 118.76604Q768.48126 119.54729 768.48126 120.95354Q768.48126 122.09416 767.98126 123.26604Q767.48126 124.43791 766.60626 124.96916Q765.7469 125.51604 764.66876 125.51604Q763.45 125.51604 762.7 124.75041Q761.96564 123.98479 761.96564 122.68791ZM764.0125 122.90666Q764.0125 123.39104 764.23126 123.62541Q764.45 123.85979 764.825 123.85979Q765.52814 123.85979 765.9969 122.81291Q766.48126 121.75041 766.48126 120.56291Q766.48126 120.12541 766.2469 119.89104Q766.02814 119.64104 765.66876 119.64104Q765.2469 119.64104 764.91876 119.98479Q764.60626 120.32854 764.3094 121.31291Q764.0125 122.28166 764.0125 122.90666Z" fill-rule="nonzero"/><path stroke="#757575" stroke-width="1.0" stroke-linecap="butt" d="M768.2 104.42229L692.2 104.42229L568.252 104.42229" fill-rule="nonzero"/><path fill="#9e9e9e" d="M570.252 104.42229C570.252 103.31772 569.35657 102.42229 568.252 102.42229C567.1474 102.42229 566.252 103.31772 566.252 104.42229C566.252 105.526855 567.1474 106.42229 568.252 106.42229C569.35657 106.42229 570.252 105.526855 570.252 104.42229" fill-rule="nonzero"/><path fill="#1a1a1a" d="M716.6375 246.29837L719.35626 245.8765Q719.71564 246.73587 720.2469 247.09525Q720.79376 247.439 721.71564 247.439Q722.66876 247.439 723.2469 247.01712Q723.65314 246.72025 723.65314 246.29837Q723.65314 246.01712 723.45 245.79837Q723.23126 245.57962 722.27814 245.26712Q719.7469 244.42337 719.1375 243.939Q718.2 243.17337 718.2 241.95462Q718.2 240.72025 719.10626 239.82962Q720.3875 238.59525 722.90314 238.59525Q724.91876 238.59525 725.9344 239.32962Q726.96564 240.04837 727.23126 241.29837L724.65314 241.7515Q724.45 241.189 723.98126 240.90775Q723.35626 240.51712 722.48126 240.51712Q721.60626 240.51712 721.21564 240.814Q720.825 241.11087 720.825 241.48587Q720.825 241.8765 721.21564 242.1265Q721.46564 242.28275 722.79376 242.67337Q724.84064 243.28275 725.54376 243.84525Q726.5125 244.65775 726.5125 245.79837Q726.5125 247.28275 725.2625 248.3765Q724.02814 249.45462 721.77814 249.45462Q719.52814 249.45462 718.29376 248.6265Q717.075 247.79837 716.6375 246.29837ZM727.7 240.90775L728.1375 238.82962L729.4969 238.82962L729.84064 237.17337L733.0594 235.23587L732.3094 238.82962L734.0125 238.82962L733.59064 240.90775L731.8719 240.90775L730.95 245.2515Q730.71564 246.439 730.71564 246.61087Q730.71564 246.92337 730.91876 247.11087Q731.1219 247.28275 731.65314 247.28275Q731.84064 247.28275 732.59064 247.22025L732.15314 249.29837Q731.41876 249.45462 730.66876 249.45462Q729.1844 249.45462 728.4969 248.8765Q727.825 248.29837 727.825 247.28275Q727.825 246.814 728.2 245.07962L729.0594 240.90775L727.7 240.90775ZM737.95 241.76712L735.21564 241.53275Q735.6844 240.15775 736.85626 239.3765Q738.02814 238.59525 739.95 238.59525Q741.95 238.59525 742.90314 239.40775Q743.8719 240.20462 743.8719 241.36087Q743.8719 241.82962 743.77814 242.36087Q743.7 242.89212 743.2 245.1265Q742.79376 246.98587 742.79376 247.73587Q742.79376 248.39212 743.02814 249.20462L740.29376 249.20462Q740.1375 248.64212 740.09064 248.03275Q739.48126 248.72025 738.66876 249.09525Q737.8719 249.45462 737.075 249.45462Q735.77814 249.45462 734.9344 248.61087Q734.10626 247.7515 734.10626 246.42337Q734.10626 244.939 735.02814 244.064Q735.95 243.17337 738.325 242.98587Q740.325 242.814 740.9969 242.57962Q741.16876 242.0015 741.16876 241.64212Q741.16876 241.189 740.8094 240.89212Q740.45 240.59525 739.73126 240.59525Q738.98126 240.59525 738.54376 240.90775Q738.10626 241.20462 737.95 241.76712ZM740.6219 244.3765Q740.3719 244.439 739.95 244.5015Q737.84064 244.7515 737.2 245.23587Q736.73126 245.59525 736.73126 246.189Q736.73126 246.67337 737.075 247.01712Q737.4344 247.34525 738.0125 247.34525Q738.65314 247.34525 739.21564 247.04837Q739.77814 246.73587 740.04376 246.2515Q740.325 245.76712 740.54376 244.73587L740.6219 244.3765ZM747.9969 234.89212L750.79376 234.89212L750.2625 237.42337L747.46564 237.42337L747.9969 234.89212ZM747.16876 238.82962L749.96564 238.82962L747.8094 249.20462L744.9969 249.20462L747.16876 238.82962ZM753.0125 238.82962L755.6375 238.82962L755.21564 240.84525Q756.66876 238.59525 758.3875 238.59525Q758.9969 238.59525 759.6844 238.89212L758.60626 241.189Q758.23126 241.04837 757.79376 241.04837Q757.075 241.04837 756.325 241.59525Q755.575 242.14212 755.15314 243.064Q754.7469 243.97025 754.325 245.95462L753.65314 249.20462L750.84064 249.20462L753.0125 238.82962ZM758.6375 246.29837L761.35626 245.8765Q761.71564 246.73587 762.2469 247.09525Q762.79376 247.439 763.71564 247.439Q764.66876 247.439 765.2469 247.01712Q765.65314 246.72025 765.65314 246.29837Q765.65314 246.01712 765.45 245.79837Q765.23126 245.57962 764.27814 245.26712Q761.7469 244.42337 761.1375 243.939Q760.2 243.17337 760.2 241.95462Q760.2 240.72025 761.10626 239.82962Q762.3875 238.59525 764.90314 238.59525Q766.91876 238.59525 767.9344 239.32962Q768.96564 240.04837 769.23126 241.29837L766.65314 241.7515Q766.45 241.189 765.98126 240.90775Q765.35626 240.51712 764.48126 240.51712Q763.60626 240.51712 763.21564 240.814Q762.825 241.11087 762.825 241.48587Q762.825 241.8765 763.21564 242.1265Q763.46564 242.28275 764.79376 242.67337Q766.84064 243.28275 767.54376 243.84525Q768.5125 244.65775 768.5125 245.79837Q768.5125 247.28275 767.2625 248.3765Q766.02814 249.45462 763.77814 249.45462Q761.52814 249.45462 760.29376 248.6265Q759.075 247.79837 758.6375 246.29837Z" fill-rule="nonzero"/><path fill="#9e9e9e" d="M724.4969 271.54837Q724.4969 269.39212 725.21564 267.17337Q726.1219 264.47025 727.52814 263.15775Q728.9344 261.82962 730.65314 261.82962Q732.3875 261.82962 733.4969 263.09525Q734.6219 264.34525 734.6219 266.7515Q734.6219 268.95462 733.8094 271.40775Q732.9969 273.84525 731.60626 275.15775Q730.21564 276.45462 728.48126 276.45462Q726.7469 276.45462 725.6219 275.189Q724.4969 273.92337 724.4969 271.54837ZM727.2469 272.11087Q727.2469 273.26712 727.60626 273.73587Q727.98126 274.20462 728.575 274.20462Q729.35626 274.20462 729.96564 273.48587Q730.7625 272.51712 731.3875 269.67337Q731.8875 267.40775 731.8875 266.09525Q731.8875 265.01712 731.5125 264.54837Q731.1375 264.07962 730.5594 264.07962Q729.8094 264.07962 729.23126 264.78275Q728.3875 265.82962 727.77814 268.42337Q727.2469 270.689 727.2469 272.11087ZM735.65314 273.5015L738.41876 273.5015L737.85626 276.20462L735.075 276.20462L735.65314 273.5015ZM742.27814 264.67337L742.8094 262.07962L752.2469 262.07962L751.825 264.07962Q750.9344 264.79837 749.84064 266.2515Q748.7625 267.70462 747.84064 269.5015Q746.91876 271.28275 746.34064 272.89212Q745.52814 275.1265 745.325 276.20462L742.66876 276.20462Q742.84064 275.1265 743.4969 273.2515Q744.29376 270.95462 745.4969 268.814Q746.7 266.65775 748.3875 264.67337L742.27814 264.67337ZM753.0125 266.32962Q753.0125 264.47025 754.0125 263.064Q755.02814 261.64212 756.84064 261.64212Q758.0594 261.64212 758.79376 262.42337Q759.54376 263.20462 759.54376 264.59525Q759.54376 265.7515 759.02814 266.92337Q758.52814 268.07962 757.65314 268.6265Q756.79376 269.15775 755.71564 269.15775Q754.5125 269.15775 753.7625 268.40775Q753.0125 267.64212 753.0125 266.32962ZM755.075 266.54837Q755.075 267.04837 755.29376 267.28275Q755.5125 267.51712 755.8719 267.51712Q756.575 267.51712 757.04376 266.45462Q757.52814 265.39212 757.52814 264.20462Q757.52814 263.78275 757.29376 263.54837Q757.075 263.29837 756.71564 263.29837Q756.3094 263.29837 755.98126 263.64212Q755.65314 263.97025 755.35626 264.95462Q755.075 265.939 755.075 266.54837ZM755.9344 276.814L753.6844 276.814L765.6219 261.64212L767.85626 261.64212L755.9344 276.814ZM761.96564 273.97025Q761.96564 272.09525 762.96564 270.689Q763.98126 269.26712 765.77814 269.26712Q767.0125 269.26712 767.7469 270.04837Q768.48126 270.82962 768.48126 272.23587Q768.48126 273.3765 767.98126 274.54837Q767.48126 275.72025 766.60626 276.2515Q765.7469 276.79837 764.66876 276.79837Q763.45 276.79837 762.7 276.03275Q761.96564 275.26712 761.96564 273.97025ZM764.0125 274.189Q764.0125 274.67337 764.23126 274.90775Q764.45 275.14212 764.825 275.14212Q765.52814 275.14212 765.9969 274.09525Q766.48126 273.03275 766.48126 271.84525Q766.48126 271.40775 766.2469 271.17337Q766.02814 270.92337 765.66876 270.92337Q765.2469 270.92337 764.91876 271.26712Q764.60626 271.61087 764.3094 272.59525Q764.0125 273.564 764.0125 274.189Z" fill-rule="nonzero"/><path stroke="#757575" stroke-width="1.0" stroke-linecap="butt" d="M768.2 255.70462L692.2 255.70462L665.71875 260.40042" fill-rule="nonzero"/><path fill="#9e9e9e" d="M667.71875 260.40042C667.71875 259.29587 666.82336 258.40042 665.71875 258.40042C664.6142 258.40042 663.71875 259.29587 663.71875 260.40042C663.71875 261.505 664.6142 262.40042 665.71875 262.40042C666.82336 262.40042 667.71875 261.505 667.71875 260.40042" fill-rule="nonzero"/><path fill="#1a1a1a" d="M713.02814 296.29837L715.7625 296.73587Q715.09064 298.54837 713.7625 299.5015Q712.45 300.45462 710.71564 300.45462Q708.73126 300.45462 707.5594 299.26712Q706.40314 298.07962 706.40314 296.01712Q706.40314 294.32962 707.10626 292.82962Q707.8094 291.314 709.21564 290.45462Q710.6375 289.59525 712.325 289.59525Q714.16876 289.59525 715.2625 290.54837Q716.35626 291.5015 716.4969 293.064L713.825 293.34525Q713.73126 292.48587 713.29376 292.07962Q712.85626 291.65775 712.15314 291.65775Q711.34064 291.65775 710.6375 292.26712Q709.9344 292.8765 709.5594 294.07962Q709.1844 295.28275 709.1844 296.32962Q709.1844 297.2515 709.6375 297.7515Q710.09064 298.2515 710.7625 298.2515Q711.4344 298.2515 712.0594 297.76712Q712.6844 297.26712 713.02814 296.29837ZM726.10626 295.89212L719.075 295.89212Q719.0594 296.04837 719.0594 296.14212Q719.0594 297.17337 719.65314 297.814Q720.2469 298.439 721.09064 298.439Q722.48126 298.439 723.2625 297.0015L725.77814 297.42337Q725.04376 298.939 723.8094 299.70462Q722.59064 300.45462 721.075 300.45462Q718.98126 300.45462 717.66876 299.1265Q716.35626 297.79837 716.35626 295.6265Q716.35626 293.5015 717.54376 291.82962Q719.15314 289.59525 722.1375 289.59525Q724.04376 289.59525 725.16876 290.76712Q726.29376 291.939 726.29376 294.064Q726.29376 295.07962 726.10626 295.89212ZM723.73126 294.17337Q723.7469 293.98587 723.7469 293.89212Q723.7469 292.73587 723.23126 292.17337Q722.71564 291.59525 721.84064 291.59525Q720.96564 291.59525 720.27814 292.2515Q719.59064 292.89212 719.35626 294.17337L723.73126 294.17337ZM729.9969 285.89212L732.79376 285.89212L732.2625 288.42337L729.46564 288.42337L729.9969 285.89212ZM729.16876 289.82962L731.96564 289.82962L729.8094 300.20462L726.9969 300.20462L729.16876 289.82962ZM732.98126 300.20462L735.98126 285.89212L738.77814 285.89212L735.77814 300.20462L732.98126 300.20462ZM741.9969 285.89212L744.79376 285.89212L744.2625 288.42337L741.46564 288.42337L741.9969 285.89212ZM741.16876 289.82962L743.96564 289.82962L741.8094 300.20462L738.9969 300.20462L741.16876 289.82962ZM747.21564 289.82962L749.8719 289.82962L749.59064 291.17337Q750.59064 290.314 751.45 289.95462Q752.3094 289.59525 753.27814 289.59525Q754.5594 289.59525 755.29376 290.32962Q756.02814 291.04837 756.02814 292.26712Q756.02814 292.814 755.7 294.32962L754.48126 300.20462L751.6844 300.20462L752.91876 294.314Q753.1844 293.0015 753.1844 292.73587Q753.1844 292.20462 752.85626 291.90775Q752.54376 291.59525 751.98126 291.59525Q751.3719 291.59525 750.6219 292.11087Q749.8719 292.6265 749.4344 293.47025Q749.1219 294.07962 748.73126 295.939L747.84064 300.20462L745.04376 300.20462L747.21564 289.82962ZM756.85626 300.7515L759.8094 301.189Q759.8094 301.6265 759.95 301.86087Q760.10626 302.09525 760.4344 302.2515Q760.7625 302.40775 761.325 302.40775Q762.21564 302.40775 762.7469 302.064Q763.15314 301.78275 763.40314 301.189Q763.5594 300.79837 763.8094 299.51712L763.90314 299.03275Q762.45 300.2515 760.90314 300.2515Q759.3719 300.2515 758.3875 299.17337Q757.41876 298.09525 757.41876 296.01712Q757.41876 294.20462 758.075 292.689Q758.7469 291.15775 759.95 290.3765Q761.15314 289.59525 762.40314 289.59525Q763.4344 289.59525 764.29376 290.14212Q765.15314 290.689 765.6375 291.67337L766.02814 289.82962L768.65314 289.82962L766.85626 298.47025Q766.41876 300.564 766.10626 301.439Q765.8094 302.32962 765.41876 302.86087Q765.02814 303.39212 764.4344 303.73587Q763.84064 304.09525 763.02814 304.2515Q762.21564 304.40775 761.2625 304.40775Q759.075 304.40775 757.95 303.65775Q756.825 302.90775 756.825 301.15775Q756.825 300.97025 756.85626 300.7515ZM760.15314 295.73587Q760.15314 296.92337 760.6844 297.54837Q761.21564 298.15775 762.02814 298.15775Q762.7469 298.15775 763.4344 297.61087Q764.1375 297.04837 764.4969 296.03275Q764.85626 295.0015 764.85626 294.04837Q764.85626 292.939 764.2625 292.26712Q763.66876 291.59525 762.8875 291.59525Q762.1375 291.59525 761.4969 292.189Q760.8719 292.78275 760.46564 294.01712Q760.15314 294.98587 760.15314 295.73587Z" fill-rule="nonzero"/><path fill="#9e9e9e" d="M729.3875 324.28275L723.7469 324.28275L724.23126 321.939L731.98126 312.89212L734.40314 312.89212L732.5125 321.90775L734.2625 321.90775L733.7625 324.28275L732.0125 324.28275L731.40314 327.20462L728.7625 327.20462L729.3875 324.28275ZM729.8875 321.90775L730.8094 317.439L727.02814 321.90775L729.8875 321.90775ZM735.65314 324.5015L738.41876 324.5015L737.85626 327.20462L735.075 327.20462L735.65314 324.5015ZM745.48126 317.34525L742.7469 316.939Q743.075 314.95462 744.27814 313.89212Q745.4969 312.82962 747.325 312.82962Q749.325 312.82962 750.46564 313.92337Q751.6219 315.0015 751.6219 316.67337Q751.6219 317.51712 751.2625 318.3765Q750.91876 319.22025 750.10626 320.15775Q749.54376 320.82962 748.23126 322.04837Q746.91876 323.2515 746.4969 323.70462Q746.075 324.14212 745.6844 324.64212L750.6375 324.64212L750.10626 327.20462L741.41876 327.20462Q741.54376 326.14212 742.02814 325.20462Q742.5125 324.2515 743.23126 323.439Q743.96564 322.61087 745.8875 320.78275Q747.325 319.39212 747.71564 318.97025Q748.3875 318.20462 748.6375 317.65775Q748.90314 317.09525 748.90314 316.64212Q748.90314 315.92337 748.48126 315.48587Q748.0594 315.03275 747.40314 315.03275Q746.73126 315.03275 746.23126 315.53275Q745.73126 316.03275 745.48126 317.34525ZM753.0125 317.32962Q753.0125 315.47025 754.0125 314.064Q755.02814 312.64212 756.84064 312.64212Q758.0594 312.64212 758.79376 313.42337Q759.54376 314.20462 759.54376 315.59525Q759.54376 316.7515 759.02814 317.92337Q758.52814 319.07962 757.65314 319.6265Q756.79376 320.15775 755.71564 320.15775Q754.5125 320.15775 753.7625 319.40775Q753.0125 318.64212 753.0125 317.32962ZM755.075 317.54837Q755.075 318.04837 755.29376 318.28275Q755.5125 318.51712 755.8719 318.51712Q756.575 318.51712 757.04376 317.45462Q757.52814 316.39212 757.52814 315.20462Q757.52814 314.78275 757.29376 314.54837Q757.075 314.29837 756.71564 314.29837Q756.3094 314.29837 755.98126 314.64212Q755.65314 314.97025 755.35626 315.95462Q755.075 316.939 755.075 317.54837ZM755.9344 327.814L753.6844 327.814L765.6219 312.64212L767.85626 312.64212L755.9344 327.814ZM761.96564 324.97025Q761.96564 323.09525 762.96564 321.689Q763.98126 320.26712 765.77814 320.26712Q767.0125 320.26712 767.7469 321.04837Q768.48126 321.82962 768.48126 323.23587Q768.48126 324.3765 767.98126 325.54837Q767.48126 326.72025 766.60626 327.2515Q765.7469 327.79837 764.66876 327.79837Q763.45 327.79837 762.7 327.03275Q761.96564 326.26712 761.96564 324.97025ZM764.0125 325.189Q764.0125 325.67337 764.23126 325.90775Q764.45 326.14212 764.825 326.14212Q765.52814 326.14212 765.9969 325.09525Q766.48126 324.03275 766.48126 322.84525Q766.48126 322.40775 766.2469 322.17337Q766.02814 321.92337 765.66876 321.92337Q765.2469 321.92337 764.91876 322.26712Q764.60626 322.61087 764.3094 323.59525Q764.0125 324.564 764.0125 325.189Z" fill-rule="nonzero"/><path stroke="#757575" stroke-width="1.0" stroke-linecap="butt" d="M768.2 306.70462L692.2 306.70462L671.4193 302.0088" fill-rule="nonzero"/><path fill="#9e9e9e" d="M673.4193 302.0088C673.4193 300.90424 672.5239 300.0088 671.4193 300.0088C670.31476 300.0088 669.4193 300.90424 669.4193 302.0088C669.4193 303.11337 670.31476 304.0088 671.4193 304.0088C672.5239 304.0088 673.4193 303.11337 673.4193 302.0088" fill-rule="nonzero"/><path fill="#1a1a1a" d="M729.6375 381.90448L732.35626 381.4826Q732.71564 382.34198 733.2469 382.70135Q733.79376 383.0451 734.71564 383.0451Q735.66876 383.0451 736.2469 382.62323Q736.65314 382.32635 736.65314 381.90448Q736.65314 381.62323 736.45 381.40448Q736.23126 381.18573 735.27814 380.87323Q732.7469 380.02948 732.1375 379.5451Q731.2 378.77948 731.2 377.56073Q731.2 376.32635 732.10626 375.43573Q733.3875 374.20135 735.90314 374.20135Q737.91876 374.20135 738.9344 374.93573Q739.96564 375.65448 740.23126 376.90448L737.65314 377.3576Q737.45 376.7951 736.98126 376.51385Q736.35626 376.12323 735.48126 376.12323Q734.60626 376.12323 734.21564 376.4201Q733.825 376.71698 733.825 377.09198Q733.825 377.4826 734.21564 377.7326Q734.46564 377.88885 735.79376 378.27948Q737.84064 378.88885 738.54376 379.45135Q739.5125 380.26385 739.5125 381.40448Q739.5125 382.88885 738.2625 383.9826Q737.02814 385.06073 734.77814 385.06073Q732.52814 385.06073 731.29376 384.2326Q730.075 383.40448 729.6375 381.90448ZM739.98126 384.81073L742.98126 370.49823L745.77814 370.49823L742.77814 384.81073L739.98126 384.81073ZM749.95 377.37323L747.21564 377.13885Q747.6844 375.76385 748.85626 374.9826Q750.02814 374.20135 751.95 374.20135Q753.95 374.20135 754.90314 375.01385Q755.8719 375.81073 755.8719 376.96698Q755.8719 377.43573 755.77814 377.96698Q755.7 378.49823 755.2 380.7326Q754.79376 382.59198 754.79376 383.34198Q754.79376 383.99823 755.02814 384.81073L752.29376 384.81073Q752.1375 384.24823 752.09064 383.63885Q751.48126 384.32635 750.66876 384.70135Q749.8719 385.06073 749.075 385.06073Q747.77814 385.06073 746.9344 384.21698Q746.10626 383.3576 746.10626 382.02948Q746.10626 380.5451 747.02814 379.6701Q747.95 378.77948 750.325 378.59198Q752.325 378.4201 752.9969 378.18573Q753.16876 377.6076 753.16876 377.24823Q753.16876 376.7951 752.8094 376.49823Q752.45 376.20135 751.73126 376.20135Q750.98126 376.20135 750.54376 376.51385Q750.10626 376.81073 749.95 377.37323ZM752.6219 379.9826Q752.3719 380.0451 751.95 380.1076Q749.84064 380.3576 749.2 380.84198Q748.73126 381.20135 748.73126 381.7951Q748.73126 382.27948 749.075 382.62323Q749.4344 382.95135 750.0125 382.95135Q750.65314 382.95135 751.21564 382.65448Q751.77814 382.34198 752.04376 381.8576Q752.325 381.37323 752.54376 380.34198L752.6219 379.9826ZM756.91876 384.81073L759.91876 370.49823L762.73126 370.49823L761.71564 375.27948Q762.4969 374.68573 763.15314 374.45135Q763.825 374.20135 764.6219 374.20135Q766.2625 374.20135 767.2469 375.2951Q768.23126 376.38885 768.23126 378.49823Q768.23126 379.90448 767.7625 381.24823Q767.3094 382.57635 766.52814 383.4201Q765.7469 384.24823 764.8875 384.65448Q764.04376 385.06073 763.10626 385.06073Q760.8719 385.06073 759.84064 383.1076L759.46564 384.81073L756.91876 384.81073ZM760.7 380.57635Q760.7 381.62323 761.29376 382.27948Q761.8875 382.93573 762.6844 382.93573Q763.3875 382.93573 764.02814 382.43573Q764.66876 381.9201 765.09064 380.81073Q765.5125 379.68573 765.5125 378.56073Q765.5125 377.45135 764.9344 376.82635Q764.3719 376.20135 763.5594 376.20135Q762.5125 376.20135 761.7469 377.1701Q760.7 378.51385 760.7 380.57635Z" fill-rule="nonzero"/><path fill="#9e9e9e" d="M734.71564 400.9826L732.09064 401.20135Q732.0125 400.3576 731.6844 400.01385Q731.35626 399.6701 730.79376 399.6701Q730.09064 399.6701 729.52814 400.2326Q728.73126 401.0451 728.2625 402.8576Q729.16876 402.26385 730.1844 402.26385Q731.84064 402.26385 732.91876 403.40448Q733.9969 404.52948 733.9969 406.4826Q733.9969 408.02948 733.23126 409.4201Q732.48126 410.7951 731.35626 411.43573Q730.2469 412.06073 728.9969 412.06073Q727.79376 412.06073 726.825 411.46698Q725.8719 410.8576 725.34064 409.71698Q724.825 408.56073 724.825 406.62323Q724.825 402.77948 726.5125 400.1076Q728.21564 397.43573 730.9969 397.43573Q732.60626 397.43573 733.54376 398.31073Q734.4969 399.18573 734.71564 400.9826ZM727.5125 407.6076Q727.5125 408.7326 727.96564 409.27948Q728.41876 409.81073 729.075 409.81073Q729.90314 409.81073 730.48126 409.0451Q731.27814 408.01385 731.27814 406.2951Q731.27814 405.18573 730.84064 404.65448Q730.40314 404.1076 729.7625 404.1076Q729.23126 404.1076 728.6844 404.51385Q728.1375 404.9201 727.825 405.81073Q727.5125 406.68573 727.5125 407.6076ZM735.65314 409.1076L738.41876 409.1076L737.85626 411.81073L735.075 411.81073L735.65314 409.1076ZM746.3875 408.88885L740.7469 408.88885L741.23126 406.5451L748.98126 397.49823L751.40314 397.49823L749.5125 406.51385L751.2625 406.51385L750.7625 408.88885L749.0125 408.88885L748.40314 411.81073L745.7625 411.81073L746.3875 408.88885ZM746.8875 406.51385L747.8094 402.0451L744.02814 406.51385L746.8875 406.51385ZM753.0125 401.93573Q753.0125 400.07635 754.0125 398.6701Q755.02814 397.24823 756.84064 397.24823Q758.0594 397.24823 758.79376 398.02948Q759.54376 398.81073 759.54376 400.20135Q759.54376 401.3576 759.02814 402.52948Q758.52814 403.68573 757.65314 404.2326Q756.79376 404.76385 755.71564 404.76385Q754.5125 404.76385 753.7625 404.01385Q753.0125 403.24823 753.0125 401.93573ZM755.075 402.15448Q755.075 402.65448 755.29376 402.88885Q755.5125 403.12323 755.8719 403.12323Q756.575 403.12323 757.04376 402.06073Q757.52814 400.99823 757.52814 399.81073Q757.52814 399.38885 757.29376 399.15448Q757.075 398.90448 756.71564 398.90448Q756.3094 398.90448 755.98126 399.24823Q755.65314 399.57635 755.35626 400.56073Q755.075 401.5451 755.075 402.15448ZM755.9344 412.4201L753.6844 412.4201L765.6219 397.24823L767.85626 397.24823L755.9344 412.4201ZM761.96564 409.57635Q761.96564 407.70135 762.96564 406.2951Q763.98126 404.87323 765.77814 404.87323Q767.0125 404.87323 767.7469 405.65448Q768.48126 406.43573 768.48126 407.84198Q768.48126 408.9826 767.98126 410.15448Q767.48126 411.32635 766.60626 411.8576Q765.7469 412.40448 764.66876 412.40448Q763.45 412.40448 762.7 411.63885Q761.96564 410.87323 761.96564 409.57635ZM764.0125 409.7951Q764.0125 410.27948 764.23126 410.51385Q764.45 410.74823 764.825 410.74823Q765.52814 410.74823 765.9969 409.70135Q766.48126 408.63885 766.48126 407.45135Q766.48126 407.01385 766.2469 406.77948Q766.02814 406.52948 765.66876 406.52948Q765.2469 406.52948 764.91876 406.87323Q764.60626 407.21698 764.3094 408.20135Q764.0125 409.1701 764.0125 409.7951Z" fill-rule="nonzero"/><path stroke="#757575" stroke-width="1.0" stroke-linecap="butt" d="M768.2 391.31073L692.2 391.31073L661.82 391.31073" fill-rule="nonzero"/><path fill="#9e9e9e" d="M663.82 391.31073C663.82 390.20615 662.92456 389.31073 661.82 389.31073C660.71545 389.31073 659.82 390.20615 659.82 391.31073C659.82 392.41528 660.71545 393.31073 661.82 393.31073C662.92456 393.31073 663.82 392.41528 663.82 391.31073" fill-rule="nonzero"/><path fill="#1a1a1a" d="M731.23126 545.9215L730.79376 547.9684L728.8094 547.9684L727.075 556.2965L724.27814 556.2965L726.0125 547.9684L724.45 547.9684L724.8875 545.9215L726.45 545.9215L726.66876 544.859Q726.9344 543.5465 727.1844 543.0934Q727.5125 542.4684 728.16876 542.109Q728.84064 541.734 729.90314 541.734Q731.1844 541.734 732.6219 542.20276L732.075 544.20276Q731.0594 543.859 730.4344 543.859Q729.96564 543.859 729.73126 544.1715Q729.575 544.359 729.40314 545.18713L729.2469 545.9215L731.23126 545.9215ZM730.98126 556.2965L733.98126 541.984L736.77814 541.984L733.77814 556.2965L730.98126 556.2965ZM737.41876 551.984Q737.41876 549.109 739.04376 547.4059Q740.66876 545.68713 743.3094 545.68713Q745.60626 545.68713 746.8875 546.95276Q748.1844 548.20276 748.1844 550.3434Q748.1844 552.87463 746.575 554.7184Q744.96564 556.5465 742.2625 556.5465Q740.79376 556.5465 739.65314 555.9684Q738.52814 555.37463 737.96564 554.2965Q737.41876 553.2184 737.41876 551.984ZM745.40314 549.984Q745.40314 548.984 744.8094 548.39026Q744.23126 547.7965 743.325 547.7965Q742.41876 547.7965 741.71564 548.359Q741.0125 548.9059 740.6219 549.984Q740.23126 551.0465 740.23126 551.95276Q740.23126 553.06213 740.825 553.7184Q741.4344 554.37463 742.35626 554.37463Q743.5125 554.37463 744.29376 553.39026Q745.40314 551.984 745.40314 549.984ZM749.41876 551.984Q749.41876 549.109 751.04376 547.4059Q752.66876 545.68713 755.3094 545.68713Q757.60626 545.68713 758.8875 546.95276Q760.1844 548.20276 760.1844 550.3434Q760.1844 552.87463 758.575 554.7184Q756.96564 556.5465 754.2625 556.5465Q752.79376 556.5465 751.65314 555.9684Q750.52814 555.37463 749.96564 554.2965Q749.41876 553.2184 749.41876 551.984ZM757.40314 549.984Q757.40314 548.984 756.8094 548.39026Q756.23126 547.7965 755.325 547.7965Q754.41876 547.7965 753.71564 548.359Q753.0125 548.9059 752.6219 549.984Q752.23126 551.0465 752.23126 551.95276Q752.23126 553.06213 752.825 553.7184Q753.4344 554.37463 754.35626 554.37463Q755.5125 554.37463 756.29376 553.39026Q757.40314 551.984 757.40314 549.984ZM763.0125 545.9215L765.6375 545.9215L765.21564 547.93713Q766.66876 545.68713 768.3875 545.68713Q768.9969 545.68713 769.6844 545.984L768.60626 548.2809Q768.23126 548.14026 767.79376 548.14026Q767.075 548.14026 766.325 548.68713Q765.575 549.234 765.15314 550.1559Q764.7469 551.06213 764.325 553.0465L763.65314 556.2965L760.84064 556.2965L763.0125 545.9215Z" fill-rule="nonzero"/><path fill="#9e9e9e" d="M717.48126 573.43713L714.7469 573.0309Q715.075 571.0465 716.27814 569.984Q717.4969 568.9215 719.325 568.9215Q721.325 568.9215 722.46564 570.01526Q723.6219 571.0934 723.6219 572.76526Q723.6219 573.609 723.2625 574.4684Q722.91876 575.31213 722.10626 576.24963Q721.54376 576.9215 720.23126 578.14026Q718.91876 579.3434 718.4969 579.7965Q718.075 580.234 717.6844 580.734L722.6375 580.734L722.10626 583.2965L713.41876 583.2965Q713.54376 582.234 714.02814 581.2965Q714.5125 580.3434 715.23126 579.5309Q715.96564 578.70276 717.8875 576.87463Q719.325 575.484 719.71564 575.06213Q720.3875 574.2965 720.6375 573.74963Q720.90314 573.18713 720.90314 572.734Q720.90314 572.01526 720.48126 571.57776Q720.0594 571.12463 719.40314 571.12463Q718.73126 571.12463 718.23126 571.62463Q717.73126 572.12463 717.48126 573.43713ZM724.4969 578.64026Q724.4969 576.484 725.21564 574.26526Q726.1219 571.56213 727.52814 570.24963Q728.9344 568.9215 730.65314 568.9215Q732.3875 568.9215 733.4969 570.18713Q734.6219 571.43713 734.6219 573.8434Q734.6219 576.0465 733.8094 578.49963Q732.9969 580.93713 731.60626 582.24963Q730.21564 583.5465 728.48126 583.5465Q726.7469 583.5465 725.6219 582.2809Q724.4969 581.01526 724.4969 578.64026ZM727.2469 579.20276Q727.2469 580.359 727.60626 580.82776Q727.98126 581.2965 728.575 581.2965Q729.35626 581.2965 729.96564 580.57776Q730.7625 579.609 731.3875 576.76526Q731.8875 574.49963 731.8875 573.18713Q731.8875 572.109 731.5125 571.64026Q731.1375 571.1715 730.5594 571.1715Q729.8094 571.1715 729.23126 571.87463Q728.3875 572.9215 727.77814 575.51526Q727.2469 577.7809 727.2469 579.20276ZM735.65314 580.5934L738.41876 580.5934L737.85626 583.2965L735.075 583.2965L735.65314 580.5934ZM751.71564 572.4684L749.09064 572.68713Q749.0125 571.8434 748.6844 571.49963Q748.35626 571.1559 747.79376 571.1559Q747.09064 571.1559 746.52814 571.7184Q745.73126 572.5309 745.2625 574.3434Q746.16876 573.74963 747.1844 573.74963Q748.84064 573.74963 749.91876 574.89026Q750.9969 576.01526 750.9969 577.9684Q750.9969 579.51526 750.23126 580.9059Q749.48126 582.2809 748.35626 582.9215Q747.2469 583.5465 745.9969 583.5465Q744.79376 583.5465 743.825 582.95276Q742.8719 582.3434 742.34064 581.20276Q741.825 580.0465 741.825 578.109Q741.825 574.26526 743.5125 571.5934Q745.21564 568.9215 747.9969 568.9215Q749.60626 568.9215 750.54376 569.7965Q751.4969 570.6715 751.71564 572.4684ZM744.5125 579.0934Q744.5125 580.2184 744.96564 580.76526Q745.41876 581.2965 746.075 581.2965Q746.90314 581.2965 747.48126 580.5309Q748.27814 579.49963 748.27814 577.7809Q748.27814 576.6715 747.84064 576.14026Q747.40314 575.5934 746.7625 575.5934Q746.23126 575.5934 745.6844 575.99963Q745.1375 576.4059 744.825 577.2965Q744.5125 578.1715 744.5125 579.0934ZM753.0125 573.4215Q753.0125 571.56213 754.0125 570.1559Q755.02814 568.734 756.84064 568.734Q758.0594 568.734 758.79376 569.51526Q759.54376 570.2965 759.54376 571.68713Q759.54376 572.8434 759.02814 574.01526Q758.52814 575.1715 757.65314 575.7184Q756.79376 576.24963 755.71564 576.24963Q754.5125 576.24963 753.7625 575.49963Q753.0125 574.734 753.0125 573.4215ZM755.075 573.64026Q755.075 574.14026 755.29376 574.37463Q755.5125 574.609 755.8719 574.609Q756.575 574.609 757.04376 573.5465Q757.52814 572.484 757.52814 571.2965Q757.52814 570.87463 757.29376 570.64026Q757.075 570.39026 756.71564 570.39026Q756.3094 570.39026 755.98126 570.734Q755.65314 571.06213 755.35626 572.0465Q755.075 573.0309 755.075 573.64026ZM755.9344 583.9059L753.6844 583.9059L765.6219 568.734L767.85626 568.734L755.9344 583.9059ZM761.96564 581.06213Q761.96564 579.18713 762.96564 577.7809Q763.98126 576.359 765.77814 576.359Q767.0125 576.359 767.7469 577.14026Q768.48126 577.9215 768.48126 579.32776Q768.48126 580.4684 767.98126 581.64026Q767.48126 582.81213 766.60626 583.3434Q765.7469 583.89026 764.66876 583.89026Q763.45 583.89026 762.7 583.12463Q761.96564 582.359 761.96564 581.06213ZM764.0125 581.2809Q764.0125 581.76526 764.23126 581.99963Q764.45 582.234 764.825 582.234Q765.52814 582.234 765.9969 581.18713Q766.48126 580.12463 766.48126 578.93713Q766.48126 578.49963 766.2469 578.26526Q766.02814 578.01526 765.66876 578.01526Q765.2469 578.01526 764.91876 578.359Q764.60626 578.70276 764.3094 579.68713Q764.0125 580.6559 764.0125 581.2809Z" fill-rule="nonzero"/><path stroke="#757575" stroke-width="1.0" stroke-linecap="butt" d="M768.2 562.7965L692.2 562.7965L518.31665 562.7965" fill-rule="nonzero"/><path fill="#9e9e9e" d="M520.31665 562.7965C520.31665 561.69196 519.42126 560.7965 518.31665 560.7965C517.2121 560.7965 516.31665 561.69196 516.31665 562.7965C516.31665 563.90106 517.2121 564.7965 518.31665 564.7965C519.42126 564.7965 520.31665 563.90106 520.31665 562.7965" fill-rule="nonzero"/></svg>